<svg width="80" height="80" viewBox="0 0 80 80" fill="none" xmlns="http://www.w3.org/2000/svg">
<g clip-path="url(#clip0_283_86)">
<path d="M41 71.992C51.464 71.86 57.78 69.612 61.488 66.232C64.988 63.032 65.844 59.124 65.98 56.008H66V53.248C65.9989 51.3285 65.2357 49.488 63.878 48.1311C62.5204 46.7742 60.6795 46.012 58.76 46.012H46V46H34V46.012H21.24C17.24 46.012 14 49.252 14 53.252V56.008H14.02C14.156 59.128 15.012 63.036 18.512 66.228C22.22 69.612 28.536 71.86 39 71.992V72H41V71.992Z" fill="url(#paint0_radial_283_86)"/>
<path d="M41 71.992C51.464 71.86 57.78 69.612 61.488 66.232C64.988 63.032 65.844 59.124 65.98 56.008H66V53.248C65.9989 51.3285 65.2357 49.488 63.878 48.1311C62.5204 46.7742 60.6795 46.012 58.76 46.012H46V46H34V46.012H21.24C17.24 46.012 14 49.252 14 53.252V56.008H14.02C14.156 59.128 15.012 63.036 18.512 66.228C22.22 69.612 28.536 71.86 39 71.992V72H41V71.992Z" fill="url(#paint1_linear_283_86)"/>
<path d="M41 71.992C51.464 71.86 57.78 69.612 61.488 66.232C64.988 63.032 65.844 59.124 65.98 56.008H66V53.248C65.9989 51.3285 65.2357 49.488 63.878 48.1311C62.5204 46.7742 60.6795 46.012 58.76 46.012H46V46H34V46.012H21.24C17.24 46.012 14 49.252 14 53.252V56.008H14.02C14.156 59.128 15.012 63.036 18.512 66.228C22.22 69.612 28.536 71.86 39 71.992V72H41V71.992Z" fill="url(#paint2_radial_283_86)"/>
<path d="M41 71.992C51.464 71.86 57.78 69.612 61.488 66.232C64.988 63.032 65.844 59.124 65.98 56.008H66V53.248C65.9989 51.3285 65.2357 49.488 63.878 48.1311C62.5204 46.7742 60.6795 46.012 58.76 46.012H46V46H34V46.012H21.24C17.24 46.012 14 49.252 14 53.252V56.008H14.02C14.156 59.128 15.012 63.036 18.512 66.228C22.22 69.612 28.536 71.86 39 71.992V72H41V71.992Z" fill="url(#paint3_radial_283_86)"/>
<path d="M41 71.992C51.464 71.86 57.78 69.612 61.488 66.232C64.988 63.032 65.844 59.124 65.98 56.008H66V53.248C65.9989 51.3285 65.2357 49.488 63.878 48.1311C62.5204 46.7742 60.6795 46.012 58.76 46.012H46V46H34V46.012H21.24C17.24 46.012 14 49.252 14 53.252V56.008H14.02C14.156 59.128 15.012 63.036 18.512 66.228C22.22 69.612 28.536 71.86 39 71.992V72H41V71.992Z" fill="url(#paint4_radial_283_86)"/>
<path d="M42 10C42 9.46957 41.7893 8.96086 41.4142 8.58579C41.0391 8.21071 40.5304 8 40 8C39.4696 8 38.9609 8.21071 38.5858 8.58579C38.2107 8.96086 38 9.46957 38 10V14H42V10Z" fill="url(#paint5_linear_283_86)"/>
<path d="M20 18C20 16.4087 20.6321 14.8826 21.7574 13.7574C22.8826 12.6321 24.4087 12 26 12H54C55.5913 12 57.1174 12.6321 58.2426 13.7574C59.3679 14.8826 60 16.4087 60 18V34C60 35.5913 59.3679 37.1174 58.2426 38.2426C57.1174 39.3679 55.5913 40 54 40H26C24.4087 40 22.8826 39.3679 21.7574 38.2426C20.6321 37.1174 20 35.5913 20 34V18Z" fill="url(#paint6_radial_283_86)"/>
<path d="M48 22C46.9391 22 45.9217 22.4214 45.1716 23.1716C44.4214 23.9217 44 24.9391 44 26C44 27.0609 44.4214 28.0783 45.1716 28.8284C45.9217 29.5786 46.9391 30 48 30C49.0609 30 50.0783 29.5786 50.8284 28.8284C51.5786 28.0783 52 27.0609 52 26C52 24.9391 51.5786 23.9217 50.8284 23.1716C50.0783 22.4214 49.0609 22 48 22Z" fill="url(#paint7_linear_283_86)"/>
<path d="M28 26C28 24.9391 28.4214 23.9217 29.1716 23.1716C29.9217 22.4214 30.9391 22 32 22C33.0609 22 34.0783 22.4214 34.8284 23.1716C35.5786 23.9217 36 24.9391 36 26C36 27.0609 35.5786 28.0783 34.8284 28.8284C34.0783 29.5786 33.0609 30 32 30C30.9391 30 29.9217 29.5786 29.1716 28.8284C28.4214 28.0783 28 27.0609 28 26Z" fill="url(#paint8_linear_283_86)"/>
<path d="M79.1319 68.8521L76.0679 67.8601C75.1386 67.5496 74.2942 67.0274 73.6014 66.3346C72.9086 65.6418 72.3864 64.7974 72.0759 63.8681L71.0759 60.8081C70.9931 60.5718 70.8389 60.3671 70.6347 60.2223C70.4305 60.0774 70.1863 59.9996 69.9359 59.9996C69.6856 59.9996 69.4414 60.0774 69.2372 60.2223C69.0329 60.3671 68.8787 60.5718 68.7959 60.8081L67.8039 63.8681C67.4992 64.7914 66.9855 65.632 66.3028 66.3243C65.6201 67.0167 64.7869 67.5423 63.8679 67.8601L60.8079 68.8521C60.5717 68.9349 60.367 69.0891 60.2221 69.2933C60.0773 69.4975 59.9995 69.7417 59.9995 69.9921C59.9995 70.2424 60.0773 70.4866 60.2221 70.6908C60.367 70.8951 60.5717 71.0492 60.8079 71.1321L63.8679 72.1281C64.8004 72.439 65.6475 72.9632 66.3419 73.659C67.0363 74.3548 67.5588 75.2029 67.8679 76.1361L68.8599 79.1921C68.9427 79.4283 69.0969 79.633 69.3012 79.7779C69.5054 79.9227 69.7496 80.0005 69.9999 80.0005C70.2503 80.0005 70.4945 79.9227 70.6987 79.7779C70.9029 79.633 71.0571 79.4283 71.1399 79.1921L72.1359 76.1361C72.4462 75.2056 72.9688 74.3601 73.6624 73.6665C74.356 72.973 75.2015 72.4504 76.1319 72.1401L79.1919 71.1481C79.4282 71.0652 79.6329 70.9111 79.7777 70.7068C79.9226 70.5026 80.0004 70.2584 80.0004 70.0081C80.0004 69.7577 79.9226 69.5135 79.7777 69.3093C79.6329 69.1051 79.4282 68.9509 79.1919 68.868L79.1319 68.8521Z" fill="url(#paint9_linear_283_86)"/>
<path d="M59.5121 37.128L60.9041 41.412C61.3362 42.7154 62.0673 43.8997 63.0391 44.87C64.0108 45.8403 65.196 46.5698 66.5001 47L70.7841 48.392L70.8681 48.416C71.1985 48.5323 71.4847 48.7483 71.6871 49.0342C71.8896 49.32 71.9983 49.6617 71.9983 50.012C71.9983 50.3623 71.8896 50.7039 71.6871 50.9898C71.4847 51.2757 71.1985 51.4917 70.8681 51.608L66.5841 53C65.28 53.4302 64.0948 54.1596 63.1231 55.13C62.1513 56.1003 61.4202 57.2845 60.9881 58.588L59.5961 62.868C59.4798 63.1984 59.2638 63.4846 58.9779 63.687C58.6921 63.8894 58.3504 63.9982 58.0001 63.9982C57.6498 63.9982 57.3082 63.8894 57.0223 63.687C56.7364 63.4846 56.5204 63.1984 56.4041 62.868L55.0081 58.588C54.5113 57.0739 53.6126 55.7232 52.4081 54.68C51.5327 53.9205 50.5159 53.3414 49.4161 52.976L45.1321 51.584C44.8017 51.4677 44.5155 51.2517 44.3131 50.9658C44.1107 50.6799 44.002 50.3383 44.002 49.988C44.002 49.6377 44.1107 49.296 44.3131 49.0102C44.5155 48.7243 44.8017 48.5083 45.1321 48.392L49.4161 47C50.7039 46.5581 51.8716 45.8235 52.8274 44.8538C53.7831 43.8842 54.5009 42.706 54.9241 41.412L56.3161 37.132C56.4316 36.8002 56.6475 36.5125 56.9338 36.309C57.2202 36.1055 57.5628 35.9961 57.9141 35.9961C58.2655 35.9961 58.6081 36.1055 58.8944 36.309C59.1808 36.5125 59.3967 36.8002 59.5121 37.132" fill="url(#paint10_linear_283_86)"/>
</g>
<defs>
<radialGradient id="paint0_radial_283_86" cx="0" cy="0" r="1" gradientUnits="userSpaceOnUse" gradientTransform="translate(2 38) rotate(30.4033) scale(72.32 115.185)">
<stop stop-color="#F08AF4"/>
<stop offset="0.535" stop-color="#9C6CFE"/>
<stop offset="1" stop-color="#4E44DB"/>
</radialGradient>
<linearGradient id="paint1_linear_283_86" x1="40" y1="42.904" x2="51.764" y2="86.856" gradientUnits="userSpaceOnUse">
<stop stop-color="#885EDB" stop-opacity="0"/>
<stop offset="1" stop-color="#E362F8"/>
</linearGradient>
<radialGradient id="paint2_radial_283_86" cx="0" cy="0" r="1" gradientUnits="userSpaceOnUse" gradientTransform="translate(58 58) rotate(-90) scale(12 6.81252)">
<stop stop-color="#4E44DB"/>
<stop offset="1" stop-color="#4E44DB" stop-opacity="0"/>
</radialGradient>
<radialGradient id="paint3_radial_283_86" cx="0" cy="0" r="1" gradientUnits="userSpaceOnUse" gradientTransform="translate(56 54) rotate(-135) scale(11.3137 8.48528)">
<stop stop-color="#4E44DB"/>
<stop offset="1" stop-color="#4E44DB" stop-opacity="0"/>
</radialGradient>
<radialGradient id="paint4_radial_283_86" cx="0" cy="0" r="1" gradientUnits="userSpaceOnUse" gradientTransform="translate(58 52) rotate(180) scale(18 7.06248)">
<stop stop-color="#4E44DB"/>
<stop offset="1" stop-color="#4E44DB" stop-opacity="0"/>
</radialGradient>
<linearGradient id="paint5_linear_283_86" x1="37.908" y1="8" x2="42.128" y2="12.916" gradientUnits="userSpaceOnUse">
<stop stop-color="#8B52F4"/>
<stop offset="1" stop-color="#3D35B1"/>
</linearGradient>
<radialGradient id="paint6_radial_283_86" cx="0" cy="0" r="1" gradientUnits="userSpaceOnUse" gradientTransform="translate(6.00073 0.000264033) rotate(39.055) scale(67.9296 129.769)">
<stop stop-color="#F08AF4"/>
<stop offset="0.535" stop-color="#9C6CFE"/>
<stop offset="1" stop-color="#4E44DB"/>
</radialGradient>
<linearGradient id="paint7_linear_283_86" x1="45.896" y1="22.308" x2="51.96" y2="32.772" gradientUnits="userSpaceOnUse">
<stop stop-color="#FDFDFD"/>
<stop offset="1" stop-color="#F9DCFA"/>
</linearGradient>
<linearGradient id="paint8_linear_283_86" x1="29.896" y1="22.308" x2="35.96" y2="32.772" gradientUnits="userSpaceOnUse">
<stop stop-color="#FDFDFD"/>
<stop offset="1" stop-color="#F9DCFA"/>
</linearGradient>
<linearGradient id="paint9_linear_283_86" x1="63.9999" y1="62.0001" x2="76.0079" y2="77.9961" gradientUnits="userSpaceOnUse">
<stop stop-color="#FFA43D"/>
<stop offset="1" stop-color="#FB5937"/>
</linearGradient>
<linearGradient id="paint10_linear_283_86" x1="66.0001" y1="60" x2="46.3641" y2="37.424" gradientUnits="userSpaceOnUse">
<stop stop-color="#FF8A69"/>
<stop offset="1" stop-color="#FFCD0F"/>
</linearGradient>
<clipPath id="clip0_283_86">
<rect width="80" height="80" fill="white"/>
</clipPath>
</defs>
</svg>
