<svg width="80" height="80" viewBox="0 0 80 80" fill="none" xmlns="http://www.w3.org/2000/svg">
<path fill-rule="evenodd" clip-rule="evenodd" d="M14.2852 57.144V54.2868L17.1423 51.4297L19.9994 54.2868V57.144C19.9994 58.6595 20.6015 60.1129 21.6731 61.1846C22.7448 62.2562 24.1982 62.8583 25.7137 62.8583H39.9994V68.5725H25.7137C22.6827 68.5725 19.7758 67.3685 17.6325 65.2252C15.4892 63.0819 14.2852 60.175 14.2852 57.144Z" fill="url(#paint0_linear_283_77)"/>
<path d="M48.5725 65.716C48.5725 66.8416 48.3508 67.9562 47.9201 68.9961C47.4893 70.036 46.858 70.9809 46.062 71.7769C45.2661 72.5728 44.3212 73.2042 43.2813 73.6349C42.2413 74.0657 41.1267 74.2874 40.0011 74.2874C38.8755 74.2874 37.7609 74.0657 36.721 73.6349C35.681 73.2042 34.7361 72.5728 33.9402 71.7769C33.1443 70.9809 32.5129 70.036 32.0821 68.9961C31.6514 67.9562 31.4297 66.8416 31.4297 65.716C31.4297 63.4427 32.3327 61.2625 33.9402 59.655C35.5477 58.0476 37.7278 57.1445 40.0011 57.1445C42.2744 57.1445 44.4546 58.0476 46.062 59.655C47.6695 61.2625 48.5725 63.4427 48.5725 65.716Z" fill="url(#paint1_linear_283_77)"/>
<path fill-rule="evenodd" clip-rule="evenodd" d="M39.9994 11.4291C34.6951 11.4291 29.608 13.5363 25.8573 17.287C22.1066 21.0377 19.9994 26.1248 19.9994 31.4291V35.7148L17.1423 38.572L14.2852 35.7148V31.4291C14.2852 24.6093 16.9943 18.0687 21.8167 13.2464C26.6391 8.42402 33.1796 5.71484 39.9994 5.71484C46.8193 5.71484 53.3598 8.42402 58.1822 13.2464C63.0046 18.0687 65.7137 24.6093 65.7137 31.4291V35.7148L62.8566 38.572L59.9994 35.7148V31.4291C59.9994 26.1248 57.8923 21.0377 54.1416 17.287C50.3908 13.5363 45.3038 11.4291 39.9994 11.4291Z" fill="url(#paint2_linear_283_77)"/>
<path d="M29.9994 34.2852H14.2852V54.2852H29.9994C31.1361 54.2852 32.2262 53.8336 33.0299 53.0299C33.8336 52.2262 34.2852 51.1361 34.2852 49.9994V38.5709C34.2852 37.4342 33.8336 36.3441 33.0299 35.5404C32.2262 34.7367 31.1361 34.2852 29.9994 34.2852Z" fill="url(#paint3_linear_283_77)"/>
<path d="M50.0006 34.2852H65.7148V47.1423C65.7148 49.0367 64.9623 50.8535 63.6227 52.1931C62.2832 53.5326 60.4664 54.2852 58.572 54.2852H50.0006C48.8639 54.2852 47.7738 53.8336 46.9701 53.0299C46.1664 52.2262 45.7148 51.1361 45.7148 49.9994V38.5709C45.7148 37.4342 46.1664 36.3441 46.9701 35.5404C47.7738 34.7367 48.8639 34.2852 50.0006 34.2852Z" fill="url(#paint4_linear_283_77)"/>
<path d="M19.9994 34.2852V54.2852H14.2852V34.2852H19.9994Z" fill="url(#paint5_linear_283_77)"/>
<path d="M60 34.2852V54.1423C61.6134 53.813 63.0634 52.9363 64.1047 51.6607C65.146 50.3851 65.7146 48.7889 65.7143 47.1423V34.2852H60Z" fill="url(#paint6_linear_283_77)"/>
<defs>
<linearGradient id="paint0_linear_283_77" x1="29.2852" y1="65.2383" x2="23.9337" y2="47.9211" gradientUnits="userSpaceOnUse">
<stop stop-color="#9CA5AD"/>
<stop offset="1" stop-color="#70777D"/>
</linearGradient>
<linearGradient id="paint1_linear_283_77" x1="46.4297" y1="72.1445" x2="31.9097" y2="63.6617" gradientUnits="userSpaceOnUse">
<stop stop-color="#383B3D"/>
<stop offset="1" stop-color="#70777D"/>
</linearGradient>
<linearGradient id="paint2_linear_283_77" x1="-4.08342" y1="5.71484" x2="3.06516" y2="34.0634" gradientUnits="userSpaceOnUse">
<stop stop-color="#B9C0C7"/>
<stop offset="1" stop-color="#70777D"/>
</linearGradient>
<linearGradient id="paint3_linear_283_77" x1="58.2137" y1="31.428" x2="58.2137" y2="54.2852" gradientUnits="userSpaceOnUse">
<stop stop-color="#0FAFFF"/>
<stop offset="1" stop-color="#0067BF"/>
</linearGradient>
<linearGradient id="paint4_linear_283_77" x1="58.2148" y1="31.428" x2="58.2148" y2="54.2852" gradientUnits="userSpaceOnUse">
<stop stop-color="#0FAFFF"/>
<stop offset="1" stop-color="#0067BF"/>
</linearGradient>
<linearGradient id="paint5_linear_283_77" x1="61.428" y1="34.2852" x2="58.908" y2="53.9623" gradientUnits="userSpaceOnUse">
<stop stop-color="#0078D4"/>
<stop offset="1" stop-color="#2052CB"/>
</linearGradient>
<linearGradient id="paint6_linear_283_77" x1="61.4286" y1="34.2852" x2="58.9086" y2="53.9623" gradientUnits="userSpaceOnUse">
<stop stop-color="#0078D4"/>
<stop offset="1" stop-color="#2052CB"/>
</linearGradient>
</defs>
</svg>
