<svg width="81" height="80" viewBox="0 0 81 80" fill="none" xmlns="http://www.w3.org/2000/svg">
<path d="M58.667 54C58.667 51.8782 57.8241 49.8434 56.3238 48.3431C54.8236 46.8428 52.7887 46 50.667 46V44H16.703C15.6494 43.9952 14.6052 44.1986 13.6305 44.5986C12.6557 44.9985 11.7695 45.587 11.0229 46.3303C10.2762 47.0737 9.68367 47.9572 9.27938 48.9302C8.87509 49.9031 8.66698 50.9463 8.66699 52C8.66699 58.764 11.999 63.864 17.207 67.188C22.335 70.456 29.247 72 36.667 72C44.087 72 50.999 70.456 56.127 67.188C61.335 63.868 64.667 58.76 64.667 52C64.667 50.088 63.995 48.332 62.875 46.956C61.6029 47.6407 60.54 48.6572 59.7991 49.8974C59.0583 51.1376 58.667 52.5553 58.667 54Z" fill="url(#paint0_linear_283_110)"/>
<path d="M58.667 54C58.667 51.8782 57.8241 49.8434 56.3238 48.3431C54.8236 46.8428 52.7887 46 50.667 46V44H16.703C15.6494 43.9952 14.6052 44.1986 13.6305 44.5986C12.6557 44.9985 11.7695 45.587 11.0229 46.3303C10.2762 47.0737 9.68367 47.9572 9.27938 48.9302C8.87509 49.9031 8.66698 50.9463 8.66699 52C8.66699 58.764 11.999 63.864 17.207 67.188C22.335 70.456 29.247 72 36.667 72C44.087 72 50.999 70.456 56.127 67.188C61.335 63.868 64.667 58.76 64.667 52C64.667 50.088 63.995 48.332 62.875 46.956C61.6029 47.6407 60.54 48.6572 59.7991 49.8974C59.0583 51.1376 58.667 52.5553 58.667 54Z" fill="url(#paint1_linear_283_110)"/>
<path d="M58.667 54C58.667 51.8782 57.8241 49.8434 56.3238 48.3431C54.8236 46.8428 52.7887 46 50.667 46V44H16.703C15.6494 43.9952 14.6052 44.1986 13.6305 44.5986C12.6557 44.9985 11.7695 45.587 11.0229 46.3303C10.2762 47.0737 9.68367 47.9572 9.27938 48.9302C8.87509 49.9031 8.66698 50.9463 8.66699 52C8.66699 58.764 11.999 63.864 17.207 67.188C22.335 70.456 29.247 72 36.667 72C44.087 72 50.999 70.456 56.127 67.188C61.335 63.868 64.667 58.76 64.667 52C64.667 50.088 63.995 48.332 62.875 46.956C61.6029 47.6407 60.54 48.6572 59.7991 49.8974C59.0583 51.1376 58.667 52.5553 58.667 54Z" fill="url(#paint2_radial_283_110)" fill-opacity="0.5"/>
<path d="M36.667 8C32.4235 8 28.3539 9.68571 25.3533 12.6863C22.3527 15.6869 20.667 19.7565 20.667 24C20.667 28.2435 22.3527 32.3131 25.3533 35.3137C28.3539 38.3143 32.4235 40 36.667 40C40.9105 40 44.9801 38.3143 47.9807 35.3137C50.9813 32.3131 52.667 28.2435 52.667 24C52.667 19.7565 50.9813 15.6869 47.9807 12.6863C44.9801 9.68571 40.9105 8 36.667 8Z" fill="url(#paint3_linear_283_110)"/>
<path d="M58.6684 48.0112L56.1524 46.0392C54.2615 44.5531 51.8807 43.8329 49.4831 44.0218C47.0855 44.2107 44.8468 45.2948 43.212 47.0587C41.5771 48.8225 40.6658 51.137 40.6592 53.542C40.6526 55.947 41.5512 58.2664 43.1764 60.0392L57.1884 75.3592C57.3758 75.5641 57.6038 75.7278 57.8579 75.8398C58.1121 75.9518 58.3867 76.0096 58.6644 76.0096C58.9421 76.0096 59.2168 75.9518 59.4709 75.8398C59.725 75.7278 59.953 75.5641 60.1404 75.3592L74.1564 60.0392C75.7816 58.2664 76.6802 55.947 76.6736 53.542C76.667 51.137 75.7557 48.8225 74.1209 47.0587C72.486 45.2948 70.2473 44.2107 67.8497 44.0218C65.4522 43.8329 63.0713 44.5531 61.1804 46.0392L58.6684 48.0112Z" fill="url(#paint4_linear_283_110)"/>
<defs>
<linearGradient id="paint0_linear_283_110" x1="21.983" y1="47.724" x2="31.031" y2="76.612" gradientUnits="userSpaceOnUse">
<stop offset="0.125" stop-color="#9C6CFE"/>
<stop offset="1" stop-color="#7A41DC"/>
</linearGradient>
<linearGradient id="paint1_linear_283_110" x1="36.667" y1="40.668" x2="49.335" y2="88" gradientUnits="userSpaceOnUse">
<stop stop-color="#885EDB" stop-opacity="0"/>
<stop offset="1" stop-color="#E362F8"/>
</linearGradient>
<radialGradient id="paint2_radial_283_110" cx="0" cy="0" r="1" gradientUnits="userSpaceOnUse" gradientTransform="translate(60.667 62) rotate(37.4141) scale(28.2843 16.9909)">
<stop offset="0.436" stop-color="#30116E"/>
<stop offset="0.556" stop-color="#30116E" stop-opacity="0.812"/>
<stop offset="1" stop-color="#30116E" stop-opacity="0"/>
</radialGradient>
<linearGradient id="paint3_linear_283_110" x1="28.275" y1="12.252" x2="44.583" y2="38.296" gradientUnits="userSpaceOnUse">
<stop offset="0.125" stop-color="#9C6CFE"/>
<stop offset="1" stop-color="#7A41DC"/>
</linearGradient>
<linearGradient id="paint4_linear_283_110" x1="44.6684" y1="45.9992" x2="65.4724" y2="80.3592" gradientUnits="userSpaceOnUse">
<stop stop-color="#FC92CB"/>
<stop offset="1" stop-color="#D7257D"/>
</linearGradient>
</defs>
</svg>
