<svg width="80" height="80" viewBox="0 0 80 80" fill="none" xmlns="http://www.w3.org/2000/svg">
<path d="M72.0799 46.1803C72.7013 46.6365 73.1648 47.2754 73.4055 48.0078C73.6461 48.7401 73.6521 49.5294 73.4224 50.2653C71.8352 55.3307 69.14 59.979 65.5324 63.8728C65.0108 64.431 64.3292 64.814 63.5813 64.9693C62.8333 65.1247 62.0556 65.0447 61.3549 64.7403L56.4674 62.5953C55.9334 62.3576 55.3512 62.248 54.7674 62.2753C54.186 62.3116 53.6211 62.4828 53.1174 62.7753C52.6136 63.0664 52.1862 63.4729 51.8702 63.9614C51.5542 64.4499 51.3588 65.0065 51.2999 65.5853L50.7124 70.9103C50.6277 71.6684 50.3109 72.3818 49.8052 72.9528C49.2995 73.5238 48.6297 73.9246 47.8874 74.1003C42.6974 75.3378 37.2874 75.3378 32.0974 74.1003C31.3596 73.9233 30.6941 73.5238 30.191 72.9558C29.6879 72.3879 29.3716 71.679 29.2849 70.9253L28.6974 65.6103C28.5965 64.7044 28.1647 63.8675 27.4849 63.2603C26.9538 62.792 26.301 62.4836 25.602 62.3707C24.903 62.2579 24.1863 62.3453 23.5349 62.6228L18.6474 64.7703C17.9486 65.0742 17.1731 65.1549 16.4267 65.0014C15.6803 64.8479 14.9996 64.4677 14.4774 63.9128C10.8639 60.0149 8.16512 55.3603 6.57738 50.2878C6.34858 49.5529 6.35471 48.7648 6.59489 48.0335C6.83508 47.3022 7.29737 46.664 7.91738 46.2078L12.2299 43.0203C12.7011 42.6748 13.0843 42.2231 13.3485 41.7019C13.6126 41.1807 13.7502 40.6046 13.7502 40.0203C13.7502 39.436 13.6126 38.8599 13.3485 38.3387C13.0843 37.8175 12.7011 37.3658 12.2299 37.0203L7.91738 33.8378C7.30184 33.3831 6.84243 32.7487 6.60245 32.0221C6.36246 31.2954 6.35371 30.5122 6.57738 29.7803C8.1622 24.7108 10.8605 20.0598 14.4749 16.1678C14.8249 15.7903 15.2499 15.4903 15.7249 15.2903C16.1876 15.0943 16.6849 14.9934 17.1874 14.9934C17.6899 14.9934 18.1872 15.0943 18.6499 15.2903L23.5174 17.4353C24.0529 17.6653 24.6348 17.7667 25.2165 17.7314C25.7983 17.6962 26.3636 17.5251 26.8674 17.2321C27.3711 16.939 27.7993 16.532 28.1175 16.0438C28.4357 15.5555 28.6352 14.9995 28.6999 14.4203L29.2899 9.11531C29.375 8.34903 29.6973 7.62847 30.2119 7.0543C30.7264 6.48014 31.4075 6.08106 32.1599 5.91281C34.7438 5.34342 37.3792 5.04017 40.0249 5.00781C42.6549 5.03781 45.2749 5.34031 47.8424 5.91281C48.5954 6.08195 49.2767 6.48234 49.7909 7.05794C50.3051 7.63354 50.6264 8.35552 50.7099 9.12281L51.2999 14.4228C51.3624 15.0011 51.5602 15.5566 51.8771 16.0444C52.1941 16.5321 52.6214 16.9385 53.1244 17.2305C53.6275 17.5226 54.1922 17.6921 54.773 17.7256C55.3537 17.759 55.9341 17.6553 56.4674 17.4228L61.3324 15.2803C62.0338 14.9739 62.8129 14.8926 63.5624 15.0475C64.3119 15.2025 64.9949 15.586 65.5174 16.1453C69.1318 20.0317 71.8287 24.679 73.4099 29.7453C73.6373 30.4798 73.6302 31.267 73.3896 31.9973C73.149 32.7276 72.6868 33.3648 72.0674 33.8203L67.7674 37.0028C67.2943 37.3452 66.9089 37.7947 66.6429 38.3146C66.3768 38.8345 66.2376 39.41 66.2366 39.994C66.2357 40.578 66.373 41.154 66.6373 41.6747C66.9016 42.1955 67.2854 42.6463 67.7574 42.9903L72.0799 46.1803ZM39.9999 50.0003C42.652 50.0003 45.1956 48.9467 47.0709 47.0714C48.9463 45.196 49.9999 42.6525 49.9999 40.0003C49.9999 37.3481 48.9463 34.8046 47.0709 32.9292C45.1956 31.0539 42.652 30.0003 39.9999 30.0003C37.3477 30.0003 34.8042 31.0539 32.9288 32.9292C31.0534 34.8046 29.9999 37.3481 29.9999 40.0003C29.9999 42.6525 31.0534 45.196 32.9288 47.0714C34.8042 48.9467 37.3477 50.0003 39.9999 50.0003Z" fill="url(#paint0_linear_283_117)"/>
<defs>
<linearGradient id="paint0_linear_283_117" x1="56.7924" y1="72.3178" x2="17.6474" y2="11.3078" gradientUnits="userSpaceOnUse">
<stop stop-color="#70777D"/>
<stop offset="1" stop-color="#B9C0C7"/>
</linearGradient>
</defs>
</svg>
