<svg width="81" height="80" viewBox="0 0 81 80" fill="none" xmlns="http://www.w3.org/2000/svg">
<path d="M12.3335 28H68.3335V70C68.3335 70.5304 68.1228 71.0391 67.7477 71.4142C67.3726 71.7893 66.8639 72 66.3335 72H14.3335C13.8031 72 13.2944 71.7893 12.9193 71.4142C12.5442 71.0391 12.3335 70.5304 12.3335 70V28Z" fill="url(#paint0_linear_283_120)"/>
<path d="M20.3335 46C20.3335 45.4696 20.5442 44.9609 20.9193 44.5858C21.2944 44.2107 21.8031 44 22.3335 44H38.3335C38.8639 44 39.3726 44.2107 39.7477 44.5858C40.1228 44.9609 40.3335 45.4696 40.3335 46V70C40.3335 70.5304 40.1228 71.0391 39.7477 71.4142C39.3726 71.7893 38.8639 72 38.3335 72H22.3335C21.8031 72 21.2944 71.7893 20.9193 71.4142C20.5442 71.0391 20.3335 70.5304 20.3335 70V46Z" fill="url(#paint1_linear_283_120)" fill-opacity="0.8"/>
<path d="M44.3335 46C44.3335 45.4696 44.5442 44.9609 44.9193 44.5858C45.2944 44.2107 45.8031 44 46.3335 44H58.3335C58.8639 44 59.3726 44.2107 59.7477 44.5858C60.1228 44.9609 60.3335 45.4696 60.3335 46V58C60.3335 58.5304 60.1228 59.0391 59.7477 59.4142C59.3726 59.7893 58.8639 60 58.3335 60H46.3335C45.8031 60 45.2944 59.7893 44.9193 59.4142C44.5442 59.0391 44.3335 58.5304 44.3335 58V46Z" fill="url(#paint2_linear_283_120)" fill-opacity="0.8"/>
<path d="M18.7335 8.72L8.8455 20.584C8.5136 20.9811 8.33231 21.4825 8.3335 22V28C8.3335 31.1826 9.59778 34.2348 11.8482 36.4853C14.0987 38.7357 17.1509 40 20.3335 40C23.5161 40 26.5683 38.7357 28.8188 36.4853C31.0692 34.2348 32.3335 31.1826 32.3335 28V22H30.3335L34.3335 8H20.2695C19.9764 8.00011 19.6868 8.06466 19.4214 8.18908C19.156 8.3135 18.9211 8.49475 18.7335 8.72Z" fill="url(#paint3_linear_283_120)"/>
<path d="M46.3335 8L50.3335 22H48.3335V28C48.3335 31.1826 49.5978 34.2348 51.8482 36.4853C54.0986 38.7357 57.1509 40 60.3335 40C63.5161 40 66.5683 38.7357 68.8188 36.4853C71.0692 34.2348 72.3335 31.1826 72.3335 28V22C72.3347 21.4825 72.1534 20.9811 71.8215 20.584L61.9335 8.72C61.7459 8.49475 61.511 8.3135 61.2456 8.18908C60.9802 8.06466 60.6906 8.00011 60.3975 8H46.3335Z" fill="url(#paint4_linear_283_120)"/>
<path d="M32.6935 8L28.3335 22V29C28.3335 35.076 33.7055 40 40.3335 40C46.9615 40 52.3335 35.076 52.3335 29V22L47.9735 8H32.6935Z" fill="url(#paint5_linear_283_120)"/>
<defs>
<linearGradient id="paint0_linear_283_120" x1="26.3335" y1="32" x2="34.3335" y2="74" gradientUnits="userSpaceOnUse">
<stop offset="0.312" stop-color="#29C3FF"/>
<stop offset="1" stop-color="#0094F0"/>
</linearGradient>
<linearGradient id="paint1_linear_283_120" x1="21.0495" y1="49.252" x2="39.5575" y2="62.984" gradientUnits="userSpaceOnUse">
<stop stop-color="#0067BF"/>
<stop offset="1" stop-color="#003580"/>
</linearGradient>
<linearGradient id="paint2_linear_283_120" x1="49.1335" y1="42.224" x2="54.9775" y2="63.264" gradientUnits="userSpaceOnUse">
<stop stop-color="#FDFDFD"/>
<stop offset="1" stop-color="#B3E0FF"/>
</linearGradient>
<linearGradient id="paint3_linear_283_120" x1="20.3335" y1="8" x2="20.3335" y2="22" gradientUnits="userSpaceOnUse">
<stop stop-color="#FB6F7B"/>
<stop offset="1" stop-color="#D7257D"/>
</linearGradient>
<linearGradient id="paint4_linear_283_120" x1="58.3335" y1="8" x2="58.3335" y2="22" gradientUnits="userSpaceOnUse">
<stop stop-color="#FB6F7B"/>
<stop offset="1" stop-color="#D7257D"/>
</linearGradient>
<linearGradient id="paint5_linear_283_120" x1="40.3335" y1="8" x2="40.3335" y2="22" gradientUnits="userSpaceOnUse">
<stop offset="0.304" stop-color="#FF9FB2"/>
<stop offset="1" stop-color="#F97DBD"/>
</linearGradient>
</defs>
</svg>
